<svg id="Layer_1" data-name="Layer 1" xmlns="http://www.w3.org/2000/svg" viewBox="0 0 641.22 347.76"><defs><style>.cls-1,.cls-3{fill:#231f20;}.cls-2{fill:#00aeef;}.cls-3{fill-rule:evenodd;}</style></defs><title>logomalta</title><path class="cls-1" d="M92.08,475.55V449.16h19.07v3.12H95.57v8.08h14.59v3.1H95.57v9h16.19v3.12H92.08Z" transform="translate(-92.08 -135.54)"/><path class="cls-1" d="M116.1,475.55V449.16h3.24v26.38H116.1Z" transform="translate(-92.08 -135.54)"/><path class="cls-1" d="M135.08,475.55V449.16h19.07v3.12H138.57v8.08h14.59v3.1H138.57v9h16.19v3.12H135.08Z" transform="translate(-92.08 -135.54)"/><path class="cls-1" d="M157,475.55l7-9.93-6.46-9.18h4l2.94,4.48c0.55,0.86,1,1.56,1.33,2.14,0.53-.79,1-1.49,1.46-2.1l3.22-4.52h3.87l-6.61,9,7.11,10.11h-4L167,469.61l-1-1.6-5,7.54H157Z" transform="translate(-92.08 -135.54)"/><path class="cls-1" d="M177.6,482.87V456.43h2.95v2.49a7.33,7.33,0,0,1,2.36-2.19,6.48,6.48,0,0,1,3.19-.73,7.54,7.54,0,0,1,4.32,1.26,7.79,7.79,0,0,1,2.82,3.55,13,13,0,0,1,1,5,12.82,12.82,0,0,1-1.05,5.28,7.94,7.94,0,0,1-3.06,3.6,7.85,7.85,0,0,1-4.22,1.25,6.1,6.1,0,0,1-2.9-.68,6.67,6.67,0,0,1-2.11-1.73v9.3H177.6Zm2.93-16.77q0,3.7,1.49,5.45a4.58,4.58,0,0,0,3.62,1.77,4.68,4.68,0,0,0,3.7-1.83q1.54-1.82,1.54-5.66a8.43,8.43,0,0,0-1.5-5.47,4.52,4.52,0,0,0-3.59-1.82,4.65,4.65,0,0,0-3.66,1.94A8.63,8.63,0,0,0,180.53,466.09Z" transform="translate(-92.08 -135.54)"/><path class="cls-1" d="M211.17,469.39l3.35,0.41a8.16,8.16,0,0,1-2.93,4.55,8.82,8.82,0,0,1-5.47,1.62,8.73,8.73,0,0,1-6.65-2.58q-2.45-2.58-2.45-7.24,0-4.82,2.48-7.49a8.41,8.41,0,0,1,6.44-2.66,8.16,8.16,0,0,1,6.26,2.61q2.43,2.6,2.43,7.34c0,0.19,0,.48,0,0.86H200.36a7.34,7.34,0,0,0,1.78,4.82,5.32,5.32,0,0,0,4,1.67,5,5,0,0,0,3-.94A6.19,6.19,0,0,0,211.17,469.39Zm-10.63-5.24h10.67a6.46,6.46,0,0,0-1.22-3.62,5,5,0,0,0-4-1.88,5.16,5.16,0,0,0-3.75,1.5A5.91,5.91,0,0,0,200.54,464.16Z" transform="translate(-92.08 -135.54)"/><path class="cls-1" d="M218.55,475.55V456.43h2.92v2.9a7.85,7.85,0,0,1,2.06-2.68,3.6,3.6,0,0,1,2.08-.65,6.38,6.38,0,0,1,3.33,1l-1.12,3a4.6,4.6,0,0,0-2.37-.7,3.1,3.1,0,0,0-1.91.64,3.45,3.45,0,0,0-1.2,1.77,12.45,12.45,0,0,0-.54,3.77v10h-3.24Z" transform="translate(-92.08 -135.54)"/><path class="cls-1" d="M237.93,472.65l0.47,2.86a11.94,11.94,0,0,1-2.45.29,5.57,5.57,0,0,1-2.74-.56,3.12,3.12,0,0,1-1.37-1.46,11.68,11.68,0,0,1-.4-3.83V459h-2.38v-2.52h2.38v-4.73l3.22-1.95v6.67h3.26V459h-3.26v11.17a5.56,5.56,0,0,0,.17,1.78,1.35,1.35,0,0,0,.56.63,2.14,2.14,0,0,0,1.11.23A10.16,10.16,0,0,0,237.93,472.65Z" transform="translate(-92.08 -135.54)"/><path class="cls-1" d="M239.89,466q0-5.31,3-7.86a8.9,8.9,0,0,1,6-2.12,8.56,8.56,0,0,1,6.44,2.58,9.82,9.82,0,0,1,2.5,7.14,12.63,12.63,0,0,1-1.11,5.8,7.83,7.83,0,0,1-3.22,3.29,9.4,9.4,0,0,1-4.62,1.17,8.59,8.59,0,0,1-6.49-2.57Q239.89,470.83,239.89,466Zm3.33,0q0,3.67,1.6,5.5a5.33,5.33,0,0,0,8,0q1.6-1.84,1.6-5.6a7.89,7.89,0,0,0-1.61-5.37,5.35,5.35,0,0,0-8,0Q243.22,462.32,243.22,466Z" transform="translate(-92.08 -135.54)"/><path class="cls-1" d="M284.91,469.39l3.34,0.41a8.16,8.16,0,0,1-2.93,4.55,9.93,9.93,0,0,1-12.12-1,10.09,10.09,0,0,1-2.46-7.24q0-4.82,2.48-7.49a8.42,8.42,0,0,1,6.44-2.66,8.15,8.15,0,0,1,6.26,2.61q2.43,2.6,2.43,7.34c0,0.19,0,.48,0,0.86H274.1a7.35,7.35,0,0,0,1.78,4.82,5.3,5.3,0,0,0,4,1.67,5,5,0,0,0,3-.94A6.22,6.22,0,0,0,284.91,469.39Zm-10.63-5.24h10.67a6.49,6.49,0,0,0-1.22-3.62,5,5,0,0,0-4-1.88,5.15,5.15,0,0,0-3.75,1.5A5.92,5.92,0,0,0,274.27,464.16Z" transform="translate(-92.08 -135.54)"/><path class="cls-1" d="M292.32,475.55V456.43h2.92v2.72a6.86,6.86,0,0,1,6.08-3.15,7.94,7.94,0,0,1,3.18.62,4.94,4.94,0,0,1,2.17,1.63,6.18,6.18,0,0,1,1,2.39,18.57,18.57,0,0,1,.18,3.15v11.75h-3.24V463.92a8.73,8.73,0,0,0-.38-3,3.13,3.13,0,0,0-1.34-1.56,4.26,4.26,0,0,0-2.26-.59,5.24,5.24,0,0,0-3.57,1.31q-1.5,1.32-1.51,5v10.43h-3.24Z" transform="translate(-92.08 -135.54)"/><path class="cls-1" d="M323.43,475.55V449.16H327l13.85,20.71V449.16h3.35v26.38h-3.58l-13.86-20.73v20.73h-3.35Z" transform="translate(-92.08 -135.54)"/><path class="cls-1" d="M362.19,475.55v-2.81a7,7,0,0,1-6.06,3.24,7.72,7.72,0,0,1-3.16-.65,5.17,5.17,0,0,1-2.18-1.63,6.12,6.12,0,0,1-1-2.4,16.25,16.25,0,0,1-.2-3V456.43h3.24V467a18.73,18.73,0,0,0,.2,3.42,3.38,3.38,0,0,0,1.29,2,4,4,0,0,0,2.45.73,5.32,5.32,0,0,0,2.74-.74,4.17,4.17,0,0,0,1.81-2,10.23,10.23,0,0,0,.53-3.73V456.43h3.24v19.11h-2.9Z" transform="translate(-92.08 -135.54)"/><path class="cls-1" d="M377.23,472.65l0.47,2.86a11.9,11.9,0,0,1-2.45.29,5.56,5.56,0,0,1-2.74-.56,3.13,3.13,0,0,1-1.37-1.46,11.63,11.63,0,0,1-.39-3.83V459h-2.38v-2.52h2.38v-4.73l3.22-1.95v6.67h3.25V459H374v11.17a5.54,5.54,0,0,0,.17,1.78,1.35,1.35,0,0,0,.56.63,2.12,2.12,0,0,0,1.11.23A10.07,10.07,0,0,0,377.23,472.65Z" transform="translate(-92.08 -135.54)"/><path class="cls-1" d="M380.36,475.55V456.43h2.92v2.9a7.89,7.89,0,0,1,2.06-2.68,3.61,3.61,0,0,1,2.08-.65,6.37,6.37,0,0,1,3.33,1l-1.12,3a4.59,4.59,0,0,0-2.37-.7,3.09,3.09,0,0,0-1.91.64,3.45,3.45,0,0,0-1.21,1.77,12.56,12.56,0,0,0-.54,3.77v10h-3.24Z" transform="translate(-92.08 -135.54)"/><path class="cls-1" d="M392.69,452.89v-3.73h3.24v3.73h-3.24Zm0,22.65V456.43h3.24v19.11h-3.24Z" transform="translate(-92.08 -135.54)"/><path class="cls-1" d="M413.32,468.55l3.19,0.41a8.27,8.27,0,0,1-2.67,5.16,7.8,7.8,0,0,1-5.28,1.86,8.19,8.19,0,0,1-6.3-2.56q-2.38-2.57-2.38-7.35a13.32,13.32,0,0,1,1-5.42,7.13,7.13,0,0,1,3.12-3.48,9.29,9.29,0,0,1,4.56-1.16,7.93,7.93,0,0,1,5.09,1.58A7.21,7.21,0,0,1,416.2,462l-3.15.49a5.22,5.22,0,0,0-1.59-2.89,4.12,4.12,0,0,0-2.76-1,5,5,0,0,0-4,1.76q-1.53,1.75-1.53,5.55t1.48,5.6a4.79,4.79,0,0,0,3.85,1.75,4.53,4.53,0,0,0,3.19-1.17A5.81,5.81,0,0,0,413.32,468.55Z" transform="translate(-92.08 -135.54)"/><path class="cls-1" d="M419.3,452.89v-3.73h3.24v3.73H419.3Zm0,22.65V456.43h3.24v19.11H419.3Z" transform="translate(-92.08 -135.54)"/><path class="cls-1" d="M426.26,466q0-5.31,2.95-7.86a8.91,8.91,0,0,1,6-2.12,8.57,8.57,0,0,1,6.44,2.58,9.83,9.83,0,0,1,2.5,7.14,12.61,12.61,0,0,1-1.1,5.8,7.83,7.83,0,0,1-3.22,3.29,9.39,9.39,0,0,1-4.61,1.17,8.59,8.59,0,0,1-6.49-2.57Q426.26,470.83,426.26,466Zm3.33,0q0,3.67,1.6,5.5a5.33,5.33,0,0,0,8,0q1.6-1.84,1.6-5.6a7.88,7.88,0,0,0-1.61-5.37,5.34,5.34,0,0,0-8,0Q429.59,462.32,429.59,466Zm3.83-11.93,2.39-5h4.25l-4,5h-2.68Z" transform="translate(-92.08 -135.54)"/><path class="cls-1" d="M448,475.55V456.43h2.92v2.72A6.86,6.86,0,0,1,457,456a7.91,7.91,0,0,1,3.17.62,4.94,4.94,0,0,1,2.17,1.63,6.24,6.24,0,0,1,1,2.39,18.9,18.9,0,0,1,.18,3.15v11.75h-3.24V463.92a8.71,8.71,0,0,0-.38-3,3.11,3.11,0,0,0-1.34-1.56,4.27,4.27,0,0,0-2.26-.59,5.24,5.24,0,0,0-3.57,1.31q-1.5,1.32-1.5,5v10.43H448Z" transform="translate(-92.08 -135.54)"/><path class="cls-1" d="M478.54,482.9l-0.36-3a7.24,7.24,0,0,0,1.85.29,3.55,3.55,0,0,0,1.73-.36,3,3,0,0,0,1.06-1,16.07,16.07,0,0,0,1-2.41c0.06-.18.15-0.44,0.29-0.79l-7.25-19.15h3.49l4,11.07q0.77,2.1,1.38,4.43a44.62,44.62,0,0,1,1.33-4.36l4.08-11.14h3.24l-7.27,19.44a38.91,38.91,0,0,1-1.82,4.34,6.43,6.43,0,0,1-2,2.35,4.66,4.66,0,0,1-2.66.75A6.5,6.5,0,0,1,478.54,482.9Z" transform="translate(-92.08 -135.54)"/><path class="cls-1" d="M506.58,467.07l3.29-.29A7.27,7.27,0,0,0,511,470a5.92,5.92,0,0,0,2.65,2.05,10,10,0,0,0,4,.78,9.66,9.66,0,0,0,3.52-.59,4.87,4.87,0,0,0,2.28-1.63,3.76,3.76,0,0,0,.75-2.26,3.44,3.44,0,0,0-.72-2.17,5.35,5.35,0,0,0-2.37-1.56,47.41,47.41,0,0,0-4.7-1.28,24.07,24.07,0,0,1-5.09-1.65,7.1,7.1,0,0,1-2.81-2.46,6,6,0,0,1-.93-3.28,6.73,6.73,0,0,1,1.13-3.73,7,7,0,0,1,3.31-2.63,12.53,12.53,0,0,1,4.84-.9,13.21,13.21,0,0,1,5.17.94,7.49,7.49,0,0,1,3.45,2.78,8,8,0,0,1,1.3,4.15l-3.34.25a5.41,5.41,0,0,0-1.83-3.78,7.12,7.12,0,0,0-4.6-1.28A7.4,7.4,0,0,0,512.4,453a3.48,3.48,0,0,0-1.45,2.8,3,3,0,0,0,1,2.34q1,0.92,5.26,1.88a34.68,34.68,0,0,1,5.84,1.69,8,8,0,0,1,3.4,2.69,6.55,6.55,0,0,1,1.1,3.75,7.2,7.2,0,0,1-1.2,4,8,8,0,0,1-3.47,2.9,12.12,12.12,0,0,1-5.08,1,15.23,15.23,0,0,1-6-1,8.45,8.45,0,0,1-3.79-3.14A8.92,8.92,0,0,1,506.58,467.07Z" transform="translate(-92.08 -135.54)"/><path class="cls-1" d="M544.4,473.19a12,12,0,0,1-3.46,2.16,10,10,0,0,1-3.58.63,7,7,0,0,1-4.84-1.54,5.08,5.08,0,0,1-1.69-3.93,5.18,5.18,0,0,1,.64-2.56,5.3,5.3,0,0,1,1.67-1.86,7.93,7.93,0,0,1,2.33-1.06,24,24,0,0,1,2.88-.48,29.65,29.65,0,0,0,5.78-1.12c0-.44,0-0.72,0-0.85a3.57,3.57,0,0,0-.92-2.79,5.44,5.44,0,0,0-3.69-1.09,5.72,5.72,0,0,0-3.37.8,4.89,4.89,0,0,0-1.61,2.84l-3.17-.43a7.85,7.85,0,0,1,1.42-3.28,6.24,6.24,0,0,1,2.86-1.93A12.75,12.75,0,0,1,540,456a11.38,11.38,0,0,1,4,.58,5.17,5.17,0,0,1,2.25,1.44,5.1,5.1,0,0,1,1,2.2,18.37,18.37,0,0,1,.16,3v4.32a46.79,46.79,0,0,0,.2,5.71,7.31,7.31,0,0,0,.82,2.29H545A6.87,6.87,0,0,1,544.4,473.19ZM544.13,466a23.85,23.85,0,0,1-5.29,1.22,12.25,12.25,0,0,0-2.83.65,2.82,2.82,0,0,0-1.28,1.05,2.86,2.86,0,0,0,.53,3.7,4.24,4.24,0,0,0,2.87.86,6.7,6.7,0,0,0,3.33-.82,5.06,5.06,0,0,0,2.14-2.24,7.79,7.79,0,0,0,.52-3.24V466Z" transform="translate(-92.08 -135.54)"/><path class="cls-1" d="M552.35,475.55V449.16h3.24v26.38h-3.24Z" transform="translate(-92.08 -135.54)"/><path class="cls-1" d="M573.14,475.55v-2.81a7,7,0,0,1-6.06,3.24,7.7,7.7,0,0,1-3.16-.65,5.17,5.17,0,0,1-2.18-1.63,6.15,6.15,0,0,1-1-2.4,16.35,16.35,0,0,1-.2-3V456.43h3.24V467a18.9,18.9,0,0,0,.2,3.42,3.38,3.38,0,0,0,1.3,2,4,4,0,0,0,2.45.73,5.3,5.3,0,0,0,2.73-.74,4.14,4.14,0,0,0,1.81-2,10.24,10.24,0,0,0,.53-3.73V456.43H576v19.11h-2.9Z" transform="translate(-92.08 -135.54)"/><path class="cls-1" d="M593.5,475.55v-2.42a5.94,5.94,0,0,1-5.34,2.85,7.51,7.51,0,0,1-4.2-1.26,8.29,8.29,0,0,1-3-3.52,12.16,12.16,0,0,1-1.05-5.19,13.59,13.59,0,0,1,1-5.19,7.52,7.52,0,0,1,2.86-3.57A7.66,7.66,0,0,1,588,456a6.38,6.38,0,0,1,3.08.73,6.46,6.46,0,0,1,2.19,1.9v-9.47h3.22v26.38h-3ZM583.26,466q0,3.67,1.55,5.49a4.67,4.67,0,0,0,3.65,1.82,4.57,4.57,0,0,0,3.61-1.74q1.49-1.74,1.48-5.3,0-3.92-1.51-5.75a4.65,4.65,0,0,0-3.73-1.83,4.48,4.48,0,0,0-3.6,1.76Q583.26,462.22,583.26,466Z" transform="translate(-92.08 -135.54)"/><path class="cls-1" d="M607.32,475.55l10.13-26.38h3.76L632,475.55h-4l-3.08-8h-11l-2.9,8h-3.71Zm7.61-10.83h8.94l-2.75-7.31q-1.26-3.33-1.87-5.47a34.08,34.08,0,0,1-1.42,5Z" transform="translate(-92.08 -135.54)"/><path class="cls-1" d="M634.38,475.55V456.43h2.91v2.72a6.87,6.87,0,0,1,6.08-3.15,7.92,7.92,0,0,1,3.17.62,5,5,0,0,1,2.17,1.63,6.25,6.25,0,0,1,1,2.39,18.45,18.45,0,0,1,.18,3.15v11.75h-3.24V463.92a8.71,8.71,0,0,0-.38-3A3.12,3.12,0,0,0,645,459.4a4.27,4.27,0,0,0-2.26-.59,5.25,5.25,0,0,0-3.57,1.31q-1.5,1.32-1.5,5v10.43h-3.24Z" transform="translate(-92.08 -135.54)"/><path class="cls-1" d="M654.9,452.89v-3.73h3.24v3.73H654.9Zm0,22.65V456.43h3.24v19.11H654.9Z" transform="translate(-92.08 -135.54)"/><path class="cls-1" d="M663.06,475.55V456.43H666v2.68a6.85,6.85,0,0,1,2.4-2.26,6.7,6.7,0,0,1,3.4-.85,6.27,6.27,0,0,1,3.48.88,4.7,4.7,0,0,1,1.91,2.46,6.86,6.86,0,0,1,5.9-3.35,5.81,5.81,0,0,1,4.37,1.58,6.73,6.73,0,0,1,1.53,4.85v13.12h-3.22v-12a9,9,0,0,0-.31-2.8,2.72,2.72,0,0,0-1.15-1.38,3.56,3.56,0,0,0-1.94-.52,4.54,4.54,0,0,0-3.35,1.34,5.91,5.91,0,0,0-1.33,4.29v11.1h-3.24V463.13a5.48,5.48,0,0,0-.79-3.24,3,3,0,0,0-2.59-1.08,4.73,4.73,0,0,0-2.53.72,4.06,4.06,0,0,0-1.68,2.1,11.85,11.85,0,0,0-.52,4v9.91h-3.24Z" transform="translate(-92.08 -135.54)"/><path class="cls-1" d="M706.23,473.19a12,12,0,0,1-3.46,2.16,10,10,0,0,1-3.57.63,6.94,6.94,0,0,1-4.84-1.54,5.07,5.07,0,0,1-1.7-3.93,5.19,5.19,0,0,1,.64-2.56,5.31,5.31,0,0,1,1.67-1.86A7.91,7.91,0,0,1,697.3,465a24.07,24.07,0,0,1,2.88-.48,29.73,29.73,0,0,0,5.78-1.12c0-.44,0-0.72,0-0.85a3.58,3.58,0,0,0-.92-2.79,5.44,5.44,0,0,0-3.69-1.09,5.72,5.72,0,0,0-3.37.8,4.89,4.89,0,0,0-1.61,2.84l-3.17-.43a7.86,7.86,0,0,1,1.42-3.28,6.22,6.22,0,0,1,2.86-1.93,12.77,12.77,0,0,1,4.34-.67,11.36,11.36,0,0,1,4,.58,5.16,5.16,0,0,1,2.25,1.44,5.09,5.09,0,0,1,1,2.2,17.94,17.94,0,0,1,.16,3v4.32a46.38,46.38,0,0,0,.2,5.71,7.26,7.26,0,0,0,.82,2.29h-3.38A6.79,6.79,0,0,1,706.23,473.19ZM706,466a23.84,23.84,0,0,1-5.29,1.22,12.23,12.23,0,0,0-2.83.65,2.82,2.82,0,0,0-1.28,1.05,2.78,2.78,0,0,0-.45,1.54,2.75,2.75,0,0,0,1,2.16,4.23,4.23,0,0,0,2.87.86,6.71,6.71,0,0,0,3.33-.82,5,5,0,0,0,2.14-2.24,7.78,7.78,0,0,0,.52-3.24V466Z" transform="translate(-92.08 -135.54)"/><path class="cls-1" d="M714.18,475.55V449.16h3.24v26.38h-3.24Z" transform="translate(-92.08 -135.54)"/><path class="cls-1" d="M733.3,471.23a4.79,4.79,0,1,1-4.74-4.66A4.69,4.69,0,0,1,733.3,471.23Zm-8.38,0a3.63,3.63,0,0,0,3.64,3.72,3.57,3.57,0,0,0,3.55-3.69A3.6,3.6,0,1,0,724.92,471.23Zm2.87,2.41h-1.08V469a12.28,12.28,0,0,1,1.79-.14,2.46,2.46,0,0,1,1.59.37,1.16,1.16,0,0,1,.48,1,1.2,1.2,0,0,1-1,1.11v0.06a1.3,1.3,0,0,1,.83,1.14,4.14,4.14,0,0,0,.34,1.13h-1.13a3.67,3.67,0,0,1-.37-1.13,0.82,0.82,0,0,0-1-.71h-0.51v1.84Zm0-2.61h0.51c0.6,0,1.08-.2,1.08-0.68s-0.31-.71-1-0.71a2.5,2.5,0,0,0-.59.06V471Z" transform="translate(-92.08 -135.54)"/><path class="cls-2" d="M405,314.16a73.06,73.06,0,0,1-45.14-130.5,4.62,4.62,0,0,1,5.71,7.26,63.82,63.82,0,1,0,77.41-1.1,4.62,4.62,0,0,1,5.51-7.42A73.06,73.06,0,0,1,405,314.16h0Z" transform="translate(-92.08 -135.54)"/><path class="cls-2" d="M431.67,161.21h0a4.62,4.62,0,0,0-4.62,4.61c0,3.75,0,8.76,0,14.32a4.72,4.72,0,0,0-.79.63l-7.51,7.51V150.66a4.62,4.62,0,0,0-9.24,0v46.85l-5.06,5.06-2.5-2.5V140.16a4.62,4.62,0,1,0-9.24,0v50.68l-10.08-10.08a4.47,4.47,0,0,0-.44-0.35c0-9.21-.06-16.9-0.07-20.06,0-1.18,0-2.29,0-3.3a4.61,4.61,0,0,0-4.6-4.64h0a4.62,4.62,0,0,0-4.62,4.6c0,0.58,0,1.19,0,1.83h0s0,0.54,0,1.53c0,0.15,0,.29,0,0.45h0c0,10.59.22,61.2,0.22,69.75,0,8.12,4.26,13.65,6.62,15.51l20,17.22V296a4.62,4.62,0,0,0,9.24,0V263.8l20.41-17.59c2.52-2,6.78-7.52,6.78-15.63,0-7.58.15-48.21,0.21-64.73A4.62,4.62,0,0,0,431.67,161.21Zm-4.74,31.88c0,5.11,0,10.28,0,15.11a4.46,4.46,0,0,0-.69.56l-17.32,17.31V211.14ZM399.65,210.9v14.93l-17.08-17.08c-0.11-.1-0.23-0.18-0.34-0.27,0-4.8,0-9.94-.05-15ZM385.55,239a11.36,11.36,0,0,1-3.26-8.39c0-1.65,0-4.87,0-9l17.37,17.37v12.21Zm37.86,0.13-14.53,12.52V239.13l18-18c0,4.35,0,7.71,0,9.4A11.23,11.23,0,0,1,423.42,239.09Z" transform="translate(-92.08 -135.54)"/><path class="cls-1" d="M733.3,407.51a4.79,4.79,0,1,1-4.74-4.66A4.69,4.69,0,0,1,733.3,407.51Zm-8.38,0a3.62,3.62,0,0,0,3.64,3.72,3.56,3.56,0,0,0,3.55-3.69A3.6,3.6,0,1,0,724.92,407.51Zm2.87,2.42h-1.08v-4.66a12.63,12.63,0,0,1,1.79-.14,2.46,2.46,0,0,1,1.59.37,1.16,1.16,0,0,1,.48,1,1.2,1.2,0,0,1-1,1.11v0.05a1.31,1.31,0,0,1,.83,1.14,4.13,4.13,0,0,0,.34,1.13h-1.13a3.69,3.69,0,0,1-.37-1.13,0.82,0.82,0,0,0-1-.71h-0.51v1.85Zm0-2.61h0.51c0.6,0,1.08-.2,1.08-0.68s-0.31-.71-1-0.71a2.33,2.33,0,0,0-.59.06v1.33Z" transform="translate(-92.08 -135.54)"/><path class="cls-2" d="M172.5,361.61a17.38,17.38,0,0,0-6.94-5,22,22,0,0,0-7.72-1.42,24.37,24.37,0,0,0-10.65,2.3,19,19,0,0,0-7.19,6.59,16.47,16.47,0,0,0-4.87-6.07c-2.79-1.87-6.5-2.82-11-2.82-4.76,0-8.7,1.1-11.71,3.28a21.83,21.83,0,0,0-4.73,5.12v-7.09H92.1v55.25h16.22V378.49A14.09,14.09,0,0,1,109.5,372c1.41-2.49,4.25-3.76,8.42-3.76,3.61,0,6,1.22,7.18,3.74,0.68,1.41,1,3.73,1,6.89v32.88h16.11V378.84a14.23,14.23,0,0,1,1.19-6.09c1.55-3.16,4.28-4.69,8.36-4.69,3.51,0,5.84,1.18,7.14,3.6a10.47,10.47,0,0,1,1,4.92v35.14h16.38l0.11-34.79a46.42,46.42,0,0,0-.54-8.14A15.73,15.73,0,0,0,172.5,361.61Z" transform="translate(-92.08 -135.54)"/><path class="cls-2" d="M236.19,407.35a7.29,7.29,0,0,1-.83-3.59c-0.07-2.47-.11-4.56-0.11-6.3v-25c0-6.7-2.58-11.34-7.68-13.77a39.76,39.76,0,0,0-17.23-3.59c-9.91,0-17,2.47-21.12,7.35a20.51,20.51,0,0,0-4.38,12l0,0.41h15.44l0.06-.32a9.63,9.63,0,0,1,2.07-4.81c1.43-1.58,3.94-2.38,7.45-2.38a16.54,16.54,0,0,1,7.21,1.24c1.55,0.79,2.31,2.19,2.31,4.28,0,1.68-1,2.89-3,3.69a25.25,25.25,0,0,1-6,1.23l-5.22.6c-5.94.7-10.52,1.9-13.6,3.55C185.84,385,183,390,183,396.81c0,5.27,1.79,9.41,5.33,12.29s8,4.32,13.39,4.32a23.72,23.72,0,0,0,11.36-2.7,31.91,31.91,0,0,0,6.81-4.95c0.1,0.92.22,1.77,0.35,2.52a15.66,15.66,0,0,0,1,3.19l0.1,0.24h17.21V409l-0.23-.1A5.12,5.12,0,0,1,236.19,407.35ZM219.3,385.46v4.63c-0.11,4.62-1.52,7.82-4.19,9.55a16.37,16.37,0,0,1-9,2.64,8.39,8.39,0,0,1-5.11-1.55c-1.35-1-2-2.67-2-5a6,6,0,0,1,3.39-5.72,23.81,23.81,0,0,1,6.88-1.91l3.46-.6a26.15,26.15,0,0,0,4.16-1A17.48,17.48,0,0,0,219.3,385.46Z" transform="translate(-92.08 -135.54)"/><rect class="cls-2" x="151.72" y="206.07" width="16.01" height="70.11"/><path class="cls-2" d="M289.13,341.65H273.28v15.22h-8.12v10.94h8.12V401c0,3.5.91,6.14,2.68,7.84,2.48,2.42,6.95,3.64,13.27,3.64,0.57,0,1.16,0,1.76,0l7.59-.26V400.75l-0.41,0-1.51.07-1.46,0c-3.91,0-5-.45-5.29-0.73s-0.78-1.26-.78-3.9V367.81h9.46V356.87h-9.46V341.65Z" transform="translate(-92.08 -135.54)"/><path class="cls-2" d="M357.76,408.88a5.12,5.12,0,0,1-2.09-1.53,7.27,7.27,0,0,1-.83-3.59c-0.07-2.47-.11-4.56-0.11-6.3v-25c0-6.7-2.58-11.34-7.68-13.77a39.75,39.75,0,0,0-17.23-3.59c-9.91,0-17,2.47-21.12,7.35a20.52,20.52,0,0,0-4.38,12l0,0.41h15.44l0.06-.32a9.64,9.64,0,0,1,2.07-4.81c1.43-1.58,3.94-2.38,7.46-2.38a16.56,16.56,0,0,1,7.22,1.24c1.55,0.79,2.3,2.19,2.3,4.28,0,1.68-1,2.89-3,3.69a25.19,25.19,0,0,1-6,1.23l-5.22.6c-5.94.7-10.52,1.9-13.6,3.55-5.67,3.06-8.55,8.08-8.55,14.91,0,5.27,1.79,9.41,5.33,12.29s8,4.32,13.38,4.32a23.74,23.74,0,0,0,11.36-2.7,32,32,0,0,0,6.81-4.95c0.1,0.92.21,1.77,0.35,2.52a15.74,15.74,0,0,0,1,3.19l0.1,0.24H358V409Zm-19-23.41v4.63c-0.11,4.62-1.51,7.82-4.19,9.55a16.37,16.37,0,0,1-9,2.64,8.4,8.4,0,0,1-5.11-1.55c-1.35-1-2-2.67-2-5a6,6,0,0,1,3.39-5.72,23.78,23.78,0,0,1,6.88-1.91l3.47-.6a26.11,26.11,0,0,0,4.15-1A17.31,17.31,0,0,0,338.79,385.46Z" transform="translate(-92.08 -135.54)"/><path class="cls-1" d="M705.43,411.58h12.45V381.94c0-1.57,0-3.22,0-3.57,0-12.93-10.81-23.41-24.13-23.41-0.37,0-4.44,0-4.79,0l-24.83,0v56.61h12.49V384.94h0V363.87c0.3-.17,11.67,0,11.67,0,10.37,0,17.29,4.2,17.13,20.71h0v27Z" transform="translate(-92.08 -135.54)"/><polygon class="cls-1" points="354.63 205.63 354.63 252.79 354.63 276.12 366.76 276.12 366.76 252.79 366.76 205.63 354.63 205.63"/><path class="cls-1" d="M660.7,384.12c0,16-13.5,29-30.16,29s-30.16-13-30.16-29,13.5-29,30.16-29S660.7,368.12,660.7,384.12Zm-30.16-18.45c-10.6,0-19.2,8.26-19.2,18.45s8.6,18.45,19.2,18.45,19.2-8.26,19.2-18.45S641.14,365.67,630.54,365.67Z" transform="translate(-92.08 -135.54)"/><path class="cls-1" d="M433.24,400.25H402.52c-15.36,0-27.82-12.11-27.82-27s12.45-27,27.82-27c14.62,0,26.59,11,27.71,24.91H442c-1.14-20.24-18.38-36.31-39.49-36.31C380.67,334.76,363,352,363,373.2s17.71,38.45,39.56,38.45h34.61Z" transform="translate(-92.08 -135.54)"/><path class="cls-1" d="M520.55,401.37H492.9c-0.55,0-1.09,0-1.62-.08h0a18.7,18.7,0,0,1-16.57-13.87h48a27,27,0,0,0,.34-4.07c0-15.64-13.35-28.33-29.83-28.33H493.1c-14.59,0-26.7,10-29.23,23.22a25.94,25.94,0,0,0,0,10.21c2.53,13.2,14.64,23.22,29.23,23.22H524Zm-29.37-36h0.11c0.61-.05,1.23-0.09,1.86-0.09h0.33c0.44,0,.87,0,1.29.06l1,0.11,0.46,0.07a18.8,18.8,0,0,1,14.44,11.08v0.1l-35.13,0A18.88,18.88,0,0,1,491.18,365.41Z" transform="translate(-92.08 -135.54)"/><path class="cls-3" d="M595,399.8h-0.28a4.35,4.35,0,0,1-4.35-4.35V364.12h12.28s-2.27-5-3.55-8l-0.51-1.21h-8.45V341.08h-12.3v13.84l-13,0L550.16,385.2h0c-1.76,3.87-4.88,9.89-4.88,9.89l-3.56-10.24h0L533.25,357l-0.62-2.09H520.11l0.13,0.42h0c0.19,0.59.41,1.28,0.64,2l0,0.05h0c2.49,7.84,6.84,22.57,8.27,27.45h0l0.47,1.54,0,0.07,7.64,25.2-12.52,26.79h12.52l25.52-53.63h0l10.07-20.68h5l0.06,35.46a12,12,0,0,0,12,12h12.49L598,399.28A14.65,14.65,0,0,1,595,399.8Z" transform="translate(-92.08 -135.54)"/></svg>